<svg id="Layer_1" data-name="Layer 1" xmlns="http://www.w3.org/2000/svg" viewBox="0 0 128 128"><defs><style>.cls-1{fill:#b9e9f9;}.cls-2{fill:#92d1ea;}.cls-3{fill:#7fc2d6;}.cls-4{fill:#faffff;}.cls-11,.cls-13,.cls-14,.cls-16,.cls-5,.cls-9{fill:none;}.cls-5{stroke:#3e64af;stroke-linejoin:bevel;}.cls-11,.cls-13,.cls-14,.cls-5{stroke-width:2px;}.cls-6{fill:#e8b992;}.cls-7{fill:#ddad8a;}.cls-8{fill:#f0f7f7;}.cls-11,.cls-13,.cls-14,.cls-15,.cls-16,.cls-9{stroke:#333;}.cls-9{stroke-linecap:square;}.cls-14,.cls-15,.cls-16,.cls-9{stroke-linejoin:round;}.cls-16,.cls-9{stroke-width:4px;}.cls-10{fill:#fff;}.cls-11,.cls-13{stroke-miterlimit:10;}.cls-12,.cls-15{fill:#333;}.cls-13{stroke-linecap:round;}.cls-15{stroke-width:1.96px;}</style></defs><title>luis-suarez</title><path class="cls-1" d="M108,86.2c-10-2-14.35-3.5-28-6.2H48c-13.64,2.88-18,4.23-28,6.2C12,88.23,8,96,8,102a136,136,0,0,0,56,12,134.72,134.72,0,0,0,56-12C120,96,116,88.23,108,86.2Z"/><path class="cls-2" d="M108,92.2c-10-2-14.35-3.5-28-6.2H48c-13.64,2.88-18,4.23-28,6.2A15.94,15.94,0,0,0,9,102.43,135.84,135.84,0,0,0,64,114a134.55,134.55,0,0,0,54.94-11.54A16,16,0,0,0,108,92.2Z"/><path class="cls-2" d="M108,86.2c-10-2-14.35-3.5-28-6.2a29.11,29.11,0,0,1-14.17,9.4l25.33,21.88A138.21,138.21,0,0,0,120,102C120,96,116,88.23,108,86.2Z"/><path class="cls-3" d="M108,92.2c-10-2-14.35-3.5-28-6.2H73.2a33.24,33.24,0,0,1-7.37,3.4l25.33,21.88h0a136.78,136.78,0,0,0,13.85-3.6q6.83-2.17,13.52-5.07l.38-.16A16,16,0,0,0,108,92.2Z"/><path class="cls-4" d="M86.69,81.59l.12-.18c-2-.44-4.24-.9-6.81-1.41H48c-2.53.53-4.73,1-6.72,1.46,0,.05,0,.12.09.18C48.13,89.94,52.51,93.25,64,96.45,75.18,93.34,79.68,90.13,86.69,81.59Z"/><polyline class="cls-5" points="31.48 103 36 103 36 94 32 94 32 98.5 36 98.5"/><path class="cls-6" d="M48,68V80c3.94,4.9,9.18,8.07,16,10,6.81-1.89,12.06-5.08,16-10V68Z"/><path class="cls-7" d="M80,68H48v6L66.35,89.24A28.93,28.93,0,0,0,80,80Z"/><path class="cls-8" d="M80,80a29.11,29.11,0,0,1-14.17,9.4L71.21,94c6.35-2.62,10.21-6,15.48-12.45l.12-.18C84.8,81,82.57,80.51,80,80Z"/><path class="cls-9" d="M48,70V80c3.94,4.9,9.18,8.07,16,10,6.81-1.89,12.06-5.08,16-10V70Z"/><path class="cls-6" d="M88,50c0-3.92-2-8-5.34-7.06V40c0-13.38-4.57-22-18.6-22S45.47,26.62,45.47,40v2.94C42,42,40,46,40,50l0,4,3.14,6h2s0,0,1,6a10.65,10.65,0,0,0,1.54,4c1.37,2.11,3.8,3.69,8.46,8a7.85,7.85,0,0,0,5.11,2H67a7.85,7.85,0,0,0,5.11-2c4.67-4.31,7.09-5.89,8.46-8a10.33,10.33,0,0,0,1.54-4c1-6,1-6,1-6h2l3-6Z"/><path class="cls-7" d="M64.06,80h0Z"/><path class="cls-7" d="M82.66,42.94V40c0-13.38-4.57-22-18.6-22a28.67,28.67,0,0,0-3.58.24C57.69,32.93,54,50.71,54,58V76.14c.64.56,1.31,1.17,2.06,1.86.08.07.17.12.25.18A14.53,14.53,0,0,0,64.05,80c3,0,6.06-.57,8.06-2l1.11-1,0,0,0,0c3.84-3.46,6-5,7.2-6.86a10.33,10.33,0,0,0,1.54-4c1-6,1-6,1-6H84a3.84,3.84,0,0,0,1.1-.17L88,54V50C88,46.08,86,42,82.66,42.94Z"/><path class="cls-7" d="M64.06,80h0Z"/><polygon class="cls-10" points="60.8 66 62 68 66 68 67.2 66 60.8 66"/><line class="cls-11" x1="65.97" y1="70" x2="61.97" y2="70"/><circle class="cls-12" cx="72.5" cy="50.5" r="1.5"/><circle class="cls-12" cx="55.5" cy="50.5" r="1.5"/><path class="cls-13" d="M60,60l2.2.6a5.55,5.55,0,0,0,3.6,0L68,60"/><polyline class="cls-14" points="58 68 60 66 68.33 66 70.33 68"/><path class="cls-15" d="M81,52c0-6,10-11.55,5-23.94C81.69,17.23,68,20,68,14c-8,0-21.65,3.23-26,14.06C37,40.69,47,46,47,52c0-1.85,0-5.9,3-8a1.15,1.15,0,0,0,.28-1.58l-3-2.56a2,2,0,0,1,.89-3c2.86-1.24,8.41-2.67,15.35.83a1.19,1.19,0,0,0,1,0c6.94-3.5,12.49-2.07,15.36-.83a2,2,0,0,1,.88,3l-3.06,2.56A1.15,1.15,0,0,0,78,44C81,46.1,81,50.18,81,52Z"/><path class="cls-16" d="M88,50c0-3.92-2-8-5.34-7.06V40c0-13.38-4.57-22-18.6-22S45.47,26.62,45.47,40v2.94C42,42,40,46,40,50l0,4,3.14,6h2s0,0,1,6a10.65,10.65,0,0,0,1.54,4c1.37,2.11,3.8,3.69,8.46,8a7.85,7.85,0,0,0,5.11,2H67a7.85,7.85,0,0,0,5.11-2c4.67-4.31,7.09-5.89,8.46-8a10.33,10.33,0,0,0,1.54-4c1-6,1-6,1-6h2l3-6Z"/><path class="cls-9" d="M48,80c-13.64,2.88-18,4.23-28,6.2C12,88.23,8,96,8,102a136,136,0,0,0,56,12,134.72,134.72,0,0,0,56-12c0-6-4-13.77-12-15.8-10-2-14.35-3.5-28-6.2"/></svg>