<svg xmlns="http://www.w3.org/2000/svg" viewBox="0 0 128 128"><defs><style>.cls-1{isolation:isolate;}.cls-11,.cls-2,.cls-8{fill:#333;}.cls-11,.cls-14,.cls-2,.cls-23,.cls-7,.cls-9{stroke:#333;}.cls-2,.cls-9{stroke-miterlimit:10;}.cls-14,.cls-18,.cls-2{stroke-width:4px;}.cls-3{fill:#e4b397;}.cls-4{fill:#e1ab90;}.cls-5{fill:#ad554b;}.cls-6{fill:#9f4d43;}.cls-14,.cls-18,.cls-23,.cls-7,.cls-9{fill:none;}.cls-11,.cls-14,.cls-18,.cls-23,.cls-7{stroke-linejoin:round;}.cls-23,.cls-7{stroke-width:3px;}.cls-11,.cls-14,.cls-23,.cls-9{stroke-linecap:round;}.cls-11,.cls-9{stroke-width:2px;}.cls-10{fill:#545d64;opacity:0.3;mix-blend-mode:multiply;}.cls-12{fill:#d5e7e5;}.cls-13{fill:#b9cdca;}.cls-15{fill:#5e463a;}.cls-16{fill:#735343;}.cls-17{fill:#e6f2f0;}.cls-18{stroke:#343433;}.cls-19{fill:#ae4355;}.cls-20{fill:#e4b351;}.cls-21{fill:#d4c898;}.cls-22{fill:#eee5bc;}</style></defs><title>native-woman</title><g class="cls-1"><g id="Layer_1" data-name="Layer 1"><path class="cls-2" d="M64.06,18.28C45.17,18.28,40,31.68,40,45.49v44H88v-44C88,31.68,82.94,18.28,64.06,18.28Z"/><path class="cls-3" d="M112.83,99.68a8,8,0,0,0-5.69-6.37L76,84.78v-10H52v10L20.86,93.31a8,8,0,0,0-5.69,6.37l-1.17,7c15.28,6.75,32.23,10,50,10s34.73-3.27,50-10Z"/><path class="cls-3" d="M64,21.76c16.08,0,21,9.17,21,20v4c3.46,0,4.56,3.41,4,8-.48,3.9-2,8-6,8v3c0,6-4.78,8.7-10.36,14.5-3.68,3.83-6.21,3.5-8.64,3.5s-5,.33-8.64-3.5C49.78,73.46,45,70.76,45,64.76v-3c-4,0-5.52-4.1-6-8-.56-4.59.54-8,4-8v-4C43,30.93,47.92,21.76,64,21.76Z"/><path class="cls-4" d="M85,45.76v-4c0-10.83-4.92-20-21-20-.63,0-1.21,0-1.8.06l-1.27,4.63C57.68,34.25,54.42,46,54.42,61.6c0,2.63.23,10.34.48,17.21l.46.45c3.68,3.83,6.21,3.5,8.64,3.5s5,.33,8.64-3.5C78.22,73.46,83,70.76,83,64.76v-3c4,0,5.52-4.1,6-8C89.56,49.17,88.46,45.76,85,45.76Z"/><path class="cls-5" d="M64,46.57c-6.32,0-12.81,2.33-18,2.24v7.33a3.89,3.89,0,0,0,2.87,3.78A60.31,60.31,0,0,0,64,61.74a60.31,60.31,0,0,0,15.13-1.82A3.89,3.89,0,0,0,82,56.14V48.81C76.81,48.9,70.32,46.57,64,46.57Z"/><path class="cls-6" d="M55.37,47.58A103.82,103.82,0,0,0,54.43,61a64.27,64.27,0,0,0,9.57.72,60.31,60.31,0,0,0,15.13-1.82A3.89,3.89,0,0,0,82,56.14V48.81c-5.19.09-11.68-2.24-18-2.24A48.07,48.07,0,0,0,55.37,47.58Z"/><path class="cls-7" d="M64,21.76c16.08,0,21,9.17,21,20,0,.63.06,3.37,0,4,3.46,0,4.56,3.41,4,8-.48,3.9-2,8-6,8v3c0,6-4.84,8.58-10.42,14.38C68.9,83,66.43,82.76,64,82.76s-5,.21-8.7-3.62C49.72,73.34,45,70.76,45,64.76v-3c-4,0-5.52-4.1-6-8-.56-4.59.54-8,4-8-.06-.63,0-3.37,0-4C43,30.93,47.92,21.76,64,21.76Z"/><circle class="cls-8" cx="54.55" cy="54.26" r="2" transform="translate(-11.01 13.99) rotate(-13.28)"/><circle class="cls-8" cx="73.45" cy="54.26" r="2" transform="translate(3.76 113.27) rotate(-76.72)"/><line class="cls-9" x1="60.2" y1="70.91" x2="68.2" y2="70.91"/><line class="cls-9" x1="63" y1="74.14" x2="65.6" y2="74.14"/><path class="cls-9" d="M60.2,64.91l2.2.6a5.55,5.55,0,0,0,3.6,0l2.2-.6"/><path class="cls-10" d="M80,102.45Z"/><path class="cls-11" d="M64,17.49c18,0,24,14.13,24,22v4c0,6.88-6,6-6,12,0-6-2.93-7.24-6-8-8-2-10-4-12-8.2-2,4.2-4,6.2-12,8.2-3.07.76-6,2-6,8,0-6-6-5.12-6-12v-4C40,31.62,46,17.5,64,17.49Z"/><path class="cls-12" d="M39.47,33.87a39.69,39.69,0,0,0-1.37,8.46c4.72-3,15.6-3.51,26-3.51s21.06.54,25.84,3.43a40.6,40.6,0,0,0-1.39-8.48C84,30.56,74.78,28.35,64.06,28.35S43.89,30.6,39.47,33.87Z"/><rect class="cls-13" x="61.77" y="31.2" width="4.38" height="4.38" transform="translate(-4.88 54.98) rotate(-44.98)"/><path class="cls-14" d="M39.47,33.87a39.69,39.69,0,0,0-1.37,8.46c4.72-3,15.6-3.51,26-3.51s21.06.54,25.84,3.43a40.6,40.6,0,0,0-1.39-8.48C84,30.56,74.78,28.35,64.06,28.35S43.89,30.6,39.47,33.87Z"/><path class="cls-12" d="M38.31,29.24a26.27,26.27,0,0,0,7.37,18.25,26.27,26.27,0,0,0,0-36.49A26.23,26.23,0,0,0,38.31,29.24Z"/><path class="cls-13" d="M53.05,29.24A26.19,26.19,0,0,0,45.68,11V47.49A26.23,26.23,0,0,0,53.05,29.24Z"/><path class="cls-15" d="M39.16,22.72l6.53,6.52,6.52-6.52a26.42,26.42,0,0,0-2.59-6.41l-3.93,3.93-3.94-3.93A26.42,26.42,0,0,0,39.16,22.72Z"/><path class="cls-16" d="M45.68,29.24l6.53-6.52a26.42,26.42,0,0,0-2.59-6.41l-3.93,3.93Z"/><path class="cls-7" d="M38.31,29.24a26.27,26.27,0,0,0,7.37,18.25,26.27,26.27,0,0,0,0-36.49A26.23,26.23,0,0,0,38.31,29.24Z"/><path class="cls-13" d="M56.91,33.39a1.3,1.3,0,1,1-1.3-1.31A1.3,1.3,0,0,1,56.91,33.39Z"/><path class="cls-13" d="M73.81,33.39a1.31,1.31,0,0,1-2.61,0,1.31,1.31,0,1,1,2.61,0Z"/><path class="cls-17" d="M87.37,87.49l19.77,5.82a8,8,0,0,1,5.69,6.37l1.17,7c-15.27,6.73-32.24,10-50,10s-34.72-3.25-50-10l1.17-7a8,8,0,0,1,5.69-6.37l19.77-5.82A27.82,27.82,0,0,0,87.37,87.49Z"/><path class="cls-12" d="M20.86,99.29a8,8,0,0,0-5.69,6.37l-.24,1.41A123.69,123.69,0,0,0,64,116.69a123.85,123.85,0,0,0,49.06-9.62l-.23-1.41a8,8,0,0,0-5.69-6.37L82.43,93.24a27.91,27.91,0,0,1-36.88,0Z"/><path class="cls-14" d="M40.63,87.49a27.82,27.82,0,0,0,46.74,0"/><path class="cls-18" d="M76,84.78l31.14,8.53a8,8,0,0,1,5.69,6.37l1.17,7c-15.27,6.73-32.24,10-50,10s-34.72-3.25-50-10l1.17-7a8,8,0,0,1,5.69-6.37L52,84.78"/><rect class="cls-19" x="57.88" y="101.98" width="12.19" height="12.19" transform="translate(-57.68 76.89) rotate(-45)"/><rect class="cls-20" x="62.24" y="106.33" width="3.48" height="3.48" transform="translate(-57.68 76.9) rotate(-45)"/><rect class="cls-14" x="57.88" y="101.98" width="12.19" height="12.19" transform="translate(-57.68 76.89) rotate(-45)"/><polygon class="cls-21" points="77.58 83.51 63.98 88.71 50.36 83.51 43.11 91.55 63.98 99.03 84.84 91.55 77.58 83.51"/><polygon class="cls-22" points="77.58 83.51 63.98 88.71 50.36 83.51 46.72 87.65 63.98 93.84 81.23 87.65 77.58 83.51"/><polygon class="cls-23" points="63.98 88.71 77.58 83.51 84.84 91.55 63.98 99.03 43.11 91.55 50.36 83.51 63.98 88.71"/><polygon class="cls-23" points="63.98 88.71 77.58 83.51 81.23 87.65 63.98 93.84 46.72 87.65 50.36 83.51 63.98 88.71"/></g></g></svg>