<svg id="Layer_1" data-name="Layer 1" xmlns="http://www.w3.org/2000/svg" viewBox="0 0 128 128"><defs><style>.cls-1{fill:#f1d0c7;}.cls-2{fill:#e5c4bd;}.cls-3{fill:#4f4e4d;}.cls-4{fill:#424242;}.cls-10,.cls-5{fill:none;stroke:#333;}.cls-5{stroke-linejoin:round;stroke-width:4px;}.cls-6{fill:#333;}.cls-7{fill:#edccc3;}.cls-8{fill:#ddb9b3;}.cls-9{fill:#444;}.cls-10{stroke-linecap:round;stroke-miterlimit:10;stroke-width:2px;}</style></defs><title>dave-grohl</title><path class="cls-1" d="M113.5,97a12.45,12.45,0,0,0-8.8-10.1l-25.5-7.3v-8.9l-30.3.2v8.7l-25.4,7.3A12.59,12.59,0,0,0,14.7,97l-.7,4.3.2.1a113.83,113.83,0,0,0,49.9,11.4,115.56,115.56,0,0,0,49.9-11.4l.1-.1Z"/><path class="cls-2" d="M64.17,88.61a15.78,15.78,0,0,0,22.33,0L92,83.33,79.2,79.58v-8.9l-30.3.2v2.56Z"/><path class="cls-3" d="M113.5,97a12.45,12.45,0,0,0-8.8-10.1l-18.3-5.2c-4.3,2.4-12.7,7.7-22.4,7.7s-18-5.3-22.3-7.7l-18.2,5.2A12.59,12.59,0,0,0,14.7,97l-.7,4.3.2.1a113.83,113.83,0,0,0,49.9,11.4,115.56,115.56,0,0,0,49.9-11.4l.1-.1Z"/><path class="cls-4" d="M23.4,92.28a12.61,12.61,0,0,0-8.7,9.4A114.13,114.13,0,0,0,64,112.78a115.58,115.58,0,0,0,49.3-11.1h0a12.45,12.45,0,0,0-8.7-9.4l-24.8-7.1A36.48,36.48,0,0,1,64,89.28c-6,0-11.4-2-15.8-4.1Z"/><path class="cls-5" d="M41.7,81.58l-18.2,5.2a12.59,12.59,0,0,0-8.8,10.1l-.7,4.3.2.1a113.83,113.83,0,0,0,49.9,11.4,115.56,115.56,0,0,0,49.9-11.4l.1-.1-.5-4.4a12.45,12.45,0,0,0-8.8-10.1l-18.3-5.2"/><path class="cls-6" d="M99.54,85.51a23.94,23.94,0,0,0-1.79-2.86c-.69-1-1.72-2.59-3.29-5-2.15-3.29-1.9-6-1.54-10.18.06-.66.12-1.36.18-2.09.56-7.57-1.16-17.49-4.59-26.54-2.8-7.5-4.18-11-7.43-14.31C75.2,18.45,71.72,17,66.15,16.1a7,7,0,0,0-5.77,1.61,10.62,10.62,0,0,0-7.89.1,16.86,16.86,0,0,0-8.2,8.66c-1.57,4.38-2.77,7.69-3.69,10.25-3.16,8.74-3.16,8.74-4.11,12.29-.17.64-.37,1.41-.64,2.37-1.1,4.06-.57,6.95.11,10.62.09.48.18,1,.27,1.51-2.79,5-2.57,6.09-.8,10.65-6,5.71-6.53,10.6-6.53,15.92a9.11,9.11,0,0,0,9.1,9.1h1.39A7.2,7.2,0,0,0,44.2,101a7.3,7.3,0,0,0,7.2-7.2A7.22,7.22,0,0,0,49,88.5l1.24-2.82a1.57,1.57,0,0,0,.12-.6V70.77l27.2-.18v9.79a9.66,9.66,0,0,0,.8,3.93,7,7,0,0,0-.18,6.14,7,7,0,0,0-.62,2.93,7.3,7.3,0,0,0,7.2,7.2,7.08,7.08,0,0,0,4.1-1.3h2.4a9.25,9.25,0,0,0,8-4.52A9.34,9.34,0,0,0,99.54,85.51Z"/><path class="cls-7" d="M64,22.08c12.7,0,20.5,7.6,20.5,19V44c3.7,0,4.3,3.1,3.5,7.1-.7,3.3-2.5,7.5-5.4,7.5,0,0,.1,1.5.1,2.6-.3,7.8-6.3,12.3-12.4,15.6a15.42,15.42,0,0,1-6.2,1.9,15.42,15.42,0,0,1-6.2-1.9c-6.2-3.2-12.1-5.6-12.4-15.6,0-1.1.1-2.6.1-2.6-2.9,0-4.7-4.2-5.4-7.5-.9-4-.2-7.1,3.5-7.1v-2.8C43.5,29.68,51.3,22.08,64,22.08Z"/><path class="cls-2" d="M84.5,44v-2.9c0-11.4-7.8-19-20.5-19l-.54,0c-4.4,13.42-9.38,29.43-9.38,52.69,1.23.68,2.52,1.32,3.82,2a15.42,15.42,0,0,0,6.2,1.9,15.42,15.42,0,0,0,6.2-1.9c6.1-3.3,12.1-7.8,12.4-15.6,0-1.1-.1-2.6-.1-2.6,2.9,0,4.7-4.2,5.4-7.5C88.8,47.08,88.2,44,84.5,44Z"/><path class="cls-8" d="M82.7,61.18c0-1.1-.1-2.6-.1-2.6,2.9,0,4.7-4.2,5.4-7.5.8-4,.2-7.1-3.5-7.1v-2.9c0-11.4-7.8-19-20.5-19s-20.5,7.6-20.3,19.1V44c-3.7,0-4.4,3.1-3.5,7.1.7,3.3,2.5,7.5,5.4,7.5,0,0-.1,1.5-.1,2.6.13,4.35,1.32,7.26,3.13,9.42v-13a17.63,17.63,0,0,1,2-8.18l4.18-8a9.7,9.7,0,0,0,.85-4V32.9a3.12,3.12,0,0,1,3-3l4-.28L75,53.8l.1.1c2.49,4.36,2.76,13.21,1.7,18.61C80.06,69.69,82.51,66.09,82.7,61.18Z"/><path class="cls-6" d="M91.3,73.88c-.4-2.6,0-5.2.2-8.6.6-8.1-1.5-18-4.5-25.9-2.7-7.5-4-10.7-7-13.8-5.5-5.7-8.6-7.1-14.1-8a5.6,5.6,0,0,0-4.9,1.6l-.3.3a9.47,9.47,0,0,0-7.6-.3A15.28,15.28,0,0,0,45.7,27c-7.9,22-6.3,17.1-8.4,24.8-1.2,4.4-.3,7.3.5,12-.7,1.2-1.2,2.2-1.6,3H46v-12c6.5-14.4,6.3-14.3,7-16.9a13.16,13.16,0,0,0,.5-3.8c0-2.7.9-5.1,3.6-5.5,4-.5,5.6-.7,8.2,0L87,73.78h4.3Z"/><path class="cls-5" d="M81.1,82.28c-2.2,6-12.2,7-17.1,7s-14.9-1-17.1-7"/><path class="cls-6" d="M80.1,49.08c.09,3.21,0,7.5,0,10,.07,5.63.26,9.76-5.8,13.8a.63.63,0,0,1-1-.5l.4-5.4a4.71,4.71,0,0,0-2.4-4.8l-3.2-1.8a2.46,2.46,0,0,0-2.2-.2l-1.8.6-1.9-.6a2.79,2.79,0,0,0-2.2.2l-3.2,1.8A5,5,0,0,0,54.3,67l.4,5.4a.62.62,0,0,1-1,.5c-5.83-3.89-5.59-8.4-5.6-13.8v-10h-4v10c-.2,6.2,2.6,12.6,7.8,16.1l7.6,5.2a8.67,8.67,0,0,0,4.6,1.5,7.89,7.89,0,0,0,4.6-1.5l7.6-5.2a18.93,18.93,0,0,0,7.8-16.1v-10Zm-8,21.7a1.15,1.15,0,0,1-.6,1.1l-2,1.3a1.37,1.37,0,0,1-2.1-1.4,2.84,2.84,0,0,1,.9-1.7.71.71,0,0,0-.8-1,19.42,19.42,0,0,1-6.8,0,.73.73,0,0,0-.8,1,2.84,2.84,0,0,1,.9,1.7,1.37,1.37,0,0,1-2.1,1.4l-2-1.3a1.38,1.38,0,0,1-.6-1.1v-3.7a1.2,1.2,0,0,1,.7-1l4.6-1.3a12.59,12.59,0,0,1,2.7-.4,8.42,8.42,0,0,1,2.7.4l4.6,1.3a1,1,0,0,1,.7,1Z"/><path class="cls-9" d="M75.8,48.58,68.58,32.45l.52.63a77.57,77.57,0,0,1,5.7,8.4c4.58,8.58,7.87,15.13,9.4,18.3C78.9,46.73,74.39,33.9,64.56,23.56a1.5,1.5,0,1,0-2.43,1.76c23,44.66,21.12,39.59,22,49C84.1,65.48,83.37,65.34,75.8,48.58Z"/><path class="cls-9" d="M55.8,26.28a5.91,5.91,0,0,0-3.3,4.18C45.38,45.94,41.14,53.28,40.8,63.38c.56-8.69,4.68-16.27,11.4-28.47,0,9.47-10.77,19.93-9.9,38.17,0-17.26,10.49-27.59,11.9-35.7.57-2.84-.47-6.33,1.7-8.1a5.55,5.55,0,0,1,2.42-.85C60.44,28.2,60,24.17,55.8,26.28Z"/><circle class="cls-6" cx="54.74" cy="50.03" r="1.5"/><circle class="cls-6" cx="73.1" cy="50.03" r="1.5"/><line class="cls-10" x1="60.07" y1="67.08" x2="67.92" y2="67.08"/><path class="cls-10" d="M60.1,59.08l2.2.6a5.55,5.55,0,0,0,3.6,0l2.2-.6"/></svg>